<svg width="24" height="28" viewBox="0 0 24 28" fill="none" xmlns="http://www.w3.org/2000/svg">
<path d="M7.09654 11.356V5.41874C7.10024 4.15597 7.60318 2.94583 8.49566 2.05247C9.38814 1.15912 10.5978 0.654976 11.8606 0.650024C13.1241 0.653739 14.3348 1.15738 15.2283 2.05087C16.1218 2.94436 16.6254 4.15516 16.6292 5.41874V11.356M23.0499 21.879L21.6137 11.2434C21.4777 10.3665 21.0285 9.56852 20.3493 8.99726C19.6702 8.426 18.8071 8.12008 17.9198 8.13624H5.80577C4.91848 8.12008 4.05539 8.426 3.37627 8.99726C2.69714 9.56852 2.24805 10.3665 2.11201 11.2434L0.675761 21.879C0.608509 22.4893 0.672814 23.107 0.864259 23.6904C1.0557 24.2738 1.36987 24.8094 1.78567 25.2613C2.20146 25.7131 2.70921 26.0705 3.27474 26.3096C3.84027 26.5488 4.45047 26.6641 5.06427 26.6477H18.6755C19.2882 26.6621 19.8968 26.5453 20.4606 26.3053C21.0244 26.0652 21.5304 25.7073 21.9446 25.2558C22.3589 24.8042 22.6718 24.2693 22.8624 23.6869C23.053 23.1045 23.1169 22.4881 23.0499 21.879Z" stroke="#E95322" stroke-width="1.29996" stroke-linecap="round" stroke-linejoin="round"/>
</svg>
